<svg id="Layer_1" height="512" viewBox="0 0 512 512" width="512" xmlns="http://www.w3.org/2000/svg"><g><path d="m494.452 169.73-.002-1.634c-.022-29.251-.765-60.16-9.392-88.263-11.188-36.447-33.578-59.949-66.55-69.851-17.569-5.275-35.168-6.424-52.187-7.534l-4.302-.283c-74.093-4.971-145.841-1.374-213.259 10.688-25.146 4.499-45.912 16.415-61.723 35.416-13.71 16.477-23.027 37.544-27.694 62.616-4.516 24.267-8.62 60.894-2.521 97.581 1.992 11.98 5.016 25.875 12.345 38.091 2.035 3.393 4.268 6.521 6.713 9.397-17.589 18.985-28.739 45.794-29.826 73.936-.481 12.475 1.153 24.559 2.733 36.244 1.649 12.191 3.206 23.706 2.084 33.927-.524 4.775-1.812 9.911-3.176 15.35-4.005 15.97-9.489 37.841 5.695 59.859 16.214 23.504 47.269 35.85 92.303 36.693 1.247.023 2.615.038 4.1.038 21.271 0 65.764-2.973 99.757-25.244 14.626-9.582 26.422-22.256 33.217-35.686 9.378-18.535 9.08-38.175-.839-55.302-8.89-15.35-11.448-33.752-14.157-53.235-1.59-11.438-3.234-23.264-6.237-35.095-1.83-7.21-4.012-13.662-6.657-19.684 10.684.261 21.183.389 31.034.44-.037 5.71 2.004 11.364 5.948 15.788l26.644 29.893-10.795 41.341c-2.693 10.315 1.916 21.169 11.209 26.395 9.293 5.225 20.96 3.524 28.375-4.134l50.667-52.338c8.511-8.793 8.899-22.409.902-31.672l-14.905-17.263 4.954-8.769c12.839-.347 26.78-1.125 40.143-3.097 28.839-4.254 48.997-20.921 58.293-48.199 7.15-20.979 7.127-45.115 7.106-66.41z" fill="#c0f3f1"/><path d="m468.65 169.73-.002-1.634c-.022-29.251-.765-60.16-9.392-88.263-11.188-36.447-33.578-59.949-66.55-69.851-17.569-5.275-35.168-6.424-52.187-7.534l-4.302-.283c-74.093-4.971-145.841-1.374-213.259 10.688-25.146 4.499-45.912 16.415-61.723 35.416-13.71 16.477-23.027 37.544-27.694 62.616-4.516 24.267-8.62 60.894-2.521 97.581 1.992 11.98 5.016 25.875 12.345 38.091 2.035 3.393 4.268 6.521 6.713 9.397-17.588 18.985-28.738 45.794-29.825 73.936-.481 12.475 1.153 24.559 2.733 36.244 1.649 12.191 3.206 23.706 2.084 33.927-.524 4.775-1.812 9.911-3.176 15.35-4.005 15.97-9.489 37.841 5.695 59.859 16.214 23.504 47.269 35.85 92.303 36.693 1.247.023 2.615.038 4.1.038 21.271 0 65.764-2.973 99.757-25.244 14.626-9.582 26.422-22.256 33.217-35.686 9.378-18.535 9.08-38.175-.839-55.302-8.89-15.35-11.448-33.752-14.157-53.235-1.59-11.438-3.234-23.264-6.237-35.095-1.83-7.21-4.012-13.662-6.657-19.684 10.684.261 21.183.389 31.034.44-.037 5.71 2.004 11.364 5.948 15.788l26.644 29.893-10.795 41.341c-2.693 10.315 1.916 21.169 11.209 26.395 9.293 5.225 20.96 3.524 28.375-4.134l50.667-52.338c8.511-8.793 8.899-22.409.902-31.672l-14.905-17.263 4.954-8.769c12.839-.347 26.78-1.125 40.143-3.097 28.839-4.254 48.997-20.921 58.293-48.199 7.149-20.979 7.125-45.115 7.105-66.41z" fill="#e4fbfa"/><g><path d="m126.337 31.737c-43.361 7.758-66.275 41.495-73.936 82.659-5.415 29.094-7.338 61.563-2.457 90.925 1.758 10.577 4.29 22.065 9.872 31.37 11.949 19.918 31.233 23.756 52.39 26.905 35.976 5.356 73.198 3.647 109.479 4.766 36.597 1.129 73.309.591 109.923.277 22.395-.192 46.656-.003 68.844-3.276 49.769-7.341 49.044-56.626 49.013-97.251-.039-52.157-1.995-121.651-62.276-139.755-16.872-5.066-34.791-5.879-52.256-7.05-69.768-4.682-139.784-1.882-208.596 10.43z" fill="#3b7ff4"/><g fill="#230034"><g><path d="m102.441 115.235c2.164-.935 3.759-2.032 4.784-3.291 2.915-3.584.976-8.963-1.186-12.377-4.267-6.738-9.428-13.596-7.899-22.162.878-4.915 3.32-8.615 7.329-11.103 4.008-2.487 8.616-3.643 13.825-3.467 1.404.059 2.574.482 3.511 1.272.936.79 1.521 1.755 1.756 2.897.729 3.564-1.271 7.409-5.266 7.241-2.458-.058-4.419.176-5.881.702-6.957 2.505-.525 12.821 1.518 16.352 3.18 5.499 6.613 11.001 6.031 17.705-.645 7.432-5.793 13.166-15.448 17.204-2.576 1.053-4.535.468-5.88-1.755-1.999-3.3-.85-7.692 2.806-9.218z"/><path d="m136.411 121.643c-1.515 7.376-12.345 3.994-11.06-2.984 2.984-15.154 6.348-29.431 10.094-42.831 1.525-5.456 1.865-12.461 6.977-16.02 1.889-1.315 4.985-1.536 7.022-.441 2.23 1.198 3.919 3.935 4.917 6.189 1.643 3.71 2.522 7.699 3.906 11.498 0 0 15.624 42.131 15.624 42.131 2.705 7.156-8.718 9.23-11.06 2.984-.702-1.872-1.742-4.681-3.115-8.426-1.375-3.744-2.414-6.553-3.116-8.426-6.086.176-11.762.645-17.028 1.405-1.173 5.208-2.226 10.181-3.161 14.921zm15.973-27.561c-.535.027-3.562-11.025-3.729-11.543-.673-2.077-1.331-3.906-1.975-5.486-.294 1.58-.688 3.409-1.185 5.486-.798 3.339-1.664 6.657-2.589 9.962-.41 1.463-.644 2.282-.702 2.458 3.335-.408 6.728-.702 10.18-.877z"/><path d="m184.161 117.254c-4.213-15.213-9.246-30.076-15.097-44.588-1.69-4.191 2.333-7.516 6.451-6.804 2.195.382 3.73 1.654 4.608 3.818 3.978 9.949 7.665 20.306 11.059 31.072 0-.058 0-.101 0-.132 0-.029.029-.073.088-.132.467-1.111 1.17-2.779 2.107-5.005 2.359-5.603 4.808-11.171 7.197-16.763 2.223-5.206 3.89-9.127 5.002-11.76 2.074-4.911 8.116-3.003 9.919 1.052.643 1.523.614 3.102-.088 4.74-1.347 3.16-3.365 7.915-6.056 14.263-3.536 8.342-6.751 16.679-10.139 25.062-1.79 4.428-5.958 11.131-11.675 8.905-1.724-.67-2.85-1.914-3.376-3.728z"/><path d="m222.279 113.08c-2.505-5.689-2.675-12.609-2.833-18.735-.059-2.282-.074-4.433-.044-6.451.105-7.07-.742-14.138 0-21.242.205-1.959.687-3.642 1.448-5.046 4.875-8.988 19.486-5.054 27.21-3.424 2.223.469 3.554 1.727 3.994 3.774.438 2.049-.06 3.892-1.493 5.53-1.434 1.639-3.291 2.194-5.573 1.668-.41-.058-1.215-.233-2.414-.527-5.352-1.303-12.186-1.914-12.42 5.442-.026.821.152 11.309.704 11.411.994.175 2.046.263 3.157.263 1.17 0 2.282-.117 3.335-.351 1.58-.292 3.042-.073 4.389.658 1.346.732 2.223 1.858 2.633 3.379.77 2.758-.983 6.451-3.951 7.022-3.043.585-6.086.761-9.128.526.117 1.698.321 3.131.615 4.304.473 1.887.741 4.115 2.009 5.681 3.428 4.231 8.008-.078 11.727 2.963 3.085 2.523 1.85 8.818-1.924 10.056-3.687 1.209-9.478.608-13.217-.094-4.301-.807-6.739-3.435-8.224-6.807z"/></g><g><path d="m279.187 75.913c-4.086-.08-5.984-3.873-5.31-7.546.452-2.465 2.954-3.961 5.31-3.865 4.213.059 10.094-.687 17.643-2.238 7.549-1.55 12.405-2.442 14.571-2.677 2.34-.292 3.978.469 4.915 2.282 2.116 4.102-.384 8.623-4.915 9.128-2.634.294-6.056.908-10.269 1.843-.586 16.561-.322 33.003.79 49.329.104 2.049-.731 3.898-2.589 4.871-1.843.966-3.746.966-5.706 0-1.96-.965-3.028-2.589-3.203-4.871-.996-15.448-1.259-31.16-.79-47.135-3.922.645-7.404.938-10.447.879z"/><path d="m319.739 116.463c-.41-5.5-.22-14.072.57-25.717.79-11.644.892-20.539.307-26.684-.235-2.282.555-3.891 2.369-4.827 3.895-2.011 8.605.419 9.041 4.827.584 5.911.555 13.84-.088 23.787 5.383.118 10.825.585 16.326 1.405.117-2.223.263-4.784.439-7.681.175-2.896.335-5.807.482-8.733.145-2.925.277-5.498.395-7.723.232-4.365 4.924-6.894 8.822-4.917 1.843.937 2.706 2.576 2.589 4.915-.293 5.501-.732 13.737-1.317 24.709s-1.024 19.209-1.316 24.708c-.37 7.347-11.78 7.34-11.41-.002.159-3.147.313-6.241.482-9.39.088-1.637.189-3.129.307-4.476-5.209-.878-10.709-1.346-16.501-1.405-.351 6.847-.381 12.582-.088 17.204.116 2.341-.747 3.98-2.59 4.916-3.882 1.972-8.498-.623-8.819-4.916z"/><path d="m369.856 113.128c-1.367-3.836-2.13-8.184-2.414-12.244-.443-6.338-.395-12.628-.395-19.003 0-5.11-.491-10.14.044-15.229.322-3.083 1.894-6.675 4.522-8.382 7.009-4.552 16.676-1.662 24.137-.087 2.224.469 3.555 1.727 3.994 3.774.439 2.049-.059 3.892-1.492 5.53-1.435 1.639-3.291 2.194-5.574 1.668-5.614-1.295-14.565-3.582-14.833 4.915-.059 1.814.043 4.141.306 6.978.264 2.839.395 4.316.395 4.433.995.175 2.048.263 3.16.263 1.17 0 2.281-.117 3.335-.351 2.889-.643 6.21 1.021 7.022 4.037.774 2.768-.982 6.451-3.952 7.022-3.043.585-6.085.761-9.126.526.116 1.698.32 3.131.615 4.302.943 4.156 1.889 7.884 7.02 7.548 3.188-.209 7.738-.021 8.471 3.95.406 2.203.026 4.721-1.755 6.232-2.17 1.842-5.582 1.404-8.21 1.404-5.811 0-13.013-.95-15.27-7.286z"/></g><g><path d="m104.947 216.128c-4.115-11.549-4.122-23.975-3.949-36.046.106-7.419-.289-14.902-.42-22.31-.095-5.406-.215-10.25 2.488-15.24 2.247-4.147 6.157-6.246 10.658-7.146 5.093-1.019 9.461-1.033 14.606-.251 4.582.696 9.067 1.55 13.602 2.507 6.299 1.329 7.51 8.793 3.574 13.29-4.203 4.802-10.78 1.519-15.986.599-2.972-.525-6.453-.355-9.183 1.032-3.109 1.58-3.874 4.416-3.981 7.772-.084 2.592.063 5.914.439 9.967s.564 6.163.564 6.333c.014.837 8.731-.005 9.277-.127 4.185-.932 8.899 1.57 10.03 5.767 1.077 3.856-1.459 9.225-5.643 10.03-4.347.836-8.693 1.087-13.038.752.167 2.425.458 4.472.878 6.145 1.283 5.658 3.228 11.228 10.03 10.781 1.254-.082 2.758-.082 4.513 0 3.575-.147 6.897 1.9 7.585 5.642.551 2.993-.135 6.887-2.509 8.902-2.972 2.523-8.125 2.499-11.789 2.099-4.326-.473-8.854.099-12.972-1.724-3.922-1.735-7.306-4.656-8.774-8.774z"/><path d="m163.623 228.289c-1.303 6.336-8.567 7.743-13.166 3.635-2.34-2.09-3.217-4.721-2.631-7.898 4.263-21.646 9.067-42.04 14.417-61.181 1.528-5.466 2.977-10.689 4.764-16.065 1.332-4.007 5.553-8.093 9.905-8.511 12.364-1.186 14.95 18.168 17.929 26.329l22.316 60.18c1.169 3.093.668 5.62-1.504 7.586-4.611 4.162-12.1 2.525-14.293-3.323-1.003-2.674-2.488-6.686-4.45-12.035-1.965-5.348-3.448-9.36-4.451-12.036-8.694.251-16.8.921-24.323 2.006-1.672 7.44-3.177 14.543-4.513 21.313zm22.818-39.368c-.67-2.088-1.485-4.617-2.445-7.585-.962-2.966-1.924-5.934-2.884-8.902-.962-2.966-1.902-5.579-2.821-7.836-.419 2.257-.983 4.87-1.693 7.836-1.143 4.783-2.375 9.507-3.698 14.23-.586 2.09-.921 3.26-1.003 3.51 4.765-.583 9.612-1.002 14.544-1.253z"/><path d="m239.976 222.271c.238 5.802-5.19 8.624-10.407 7.523-3.605-.761-5.823-3.976-5.892-7.523-.084-4.345-.231-10.823-.439-19.432-.21-8.608-.398-15.086-.564-19.433-.389-10.146-2.847-19.639-.376-29.839 2.833-11.691 17.844-11.742 26.83-8.024 6.351 2.758 11.24 7.378 14.67 13.854 3.426 6.478 4.344 13.061 2.758 19.747-1.422 5.852-4.348 10.7-8.777 14.544 5.015 9.863 9.82 20.229 14.419 31.093 1.714 4.05-1.768 9.031-5.769 10.03-4.652 1.162-8.255-1.558-10.029-5.768-3.762-8.943-8.15-18.262-13.165-27.958-1.254.335-2.507.627-3.761.878.082 2.256.167 5.642.251 10.155.082 4.511.167 7.896.251 10.153zm4.097-61.353c-.955-.491-2.01-.84-3.157-1.021-3.348-.529-3.011 4.179-2.83 6.254.443 5.086.818 10.059.949 15.123.041 1.589.063 3.009.063 4.263 4.764-1.42 8.065-4.178 9.905-8.274 1.419-3.009 1.671-6.037.753-9.09-.961-3.195-2.902-5.826-5.683-7.255z"/><path d="m278.967 162.969c-3.496-.144-6.935-2.332-7.585-5.955-.934-5.204 1.774-10.581 7.585-10.344 6.018.084 14.418-.981 25.201-3.197 10.782-2.214 17.719-3.489 20.812-3.824 3.342-.417 5.683.67 7.021 3.26 2.865 5.559-.922 12.358-7.022 13.039-3.761.42-8.65 1.297-14.668 2.633-.836 23.655-.46 47.141 1.129 70.461.167 3.26-1.066 5.579-3.699 6.958-5.426 2.842-12.327-.768-12.726-6.959-1.422-22.066-1.798-44.507-1.128-67.325-5.601.92-10.575 1.337-14.92 1.253z"/><path d="m336.889 220.89c-.585-7.855-.313-20.1.815-36.733 1.129-16.632 1.274-29.338.439-38.114-.335-3.26.793-5.557 3.384-6.895 5.469-2.824 12.289.81 12.915 6.895.835 8.443.793 19.768-.126 33.976 7.689.169 15.462.836 23.32 2.006.166-3.175.376-6.833.627-10.97.478-7.871.836-15.638 1.253-23.507.332-6.261 7.048-9.84 12.601-7.022 2.633 1.338 3.865 3.679 3.698 7.021-.419 7.858-1.046 19.621-1.881 35.293-.836 15.672-1.463 27.438-1.88 35.293-.169 3.344-1.63 5.685-4.388 7.021-5.48 2.658-12.235-.585-11.911-7.021.226-4.49.449-8.933.689-13.415.126-2.339.271-4.47.438-6.394-7.44-1.254-15.296-1.922-23.57-2.006-.501 9.779-.544 17.972-.126 24.573.54 10.783-15.547 10.049-16.297-.001z"/></g></g><path d="m301.716 237.8-22.046 48.793c-.699 1.546-.421 3.359.708 4.626l33.48 37.562-13.39 51.281c-1.116 4.273 4.169 7.245 7.241 4.072l50.667-52.337c1.546-1.597 1.618-4.111.165-5.794l-23.727-27.481 28.318-50.124z" fill="#3b7ff4"/><g><path d="m217.139 312.158c7.886 31.069 5.873 64.708 22.388 93.224 14.765 25.493-5.142 51.472-26.291 65.328-25.939 16.994-62.465 22.644-92.985 22.072-25.826-.484-60.918-5.279-76.872-28.406-14.302-20.738-1.6-40.731.759-62.224 2.547-23.209-5.625-47.967-4.716-71.524 1.159-30.025 16.926-62.02 43.184-76.125 45.744-24.574 106.774-8.145 128.555 40.175 2.55 5.658 4.462 11.508 5.978 17.48z" fill="#230034"/><path d="m72.469 294.557s-10.193 8.596-9.813 32.582c.06 3.765-5.375 9.304-5.026 13.221 3.463 38.879 27.065 78.267 66.966 90.602 44.823 13.856 79.046-51.925 73.387-96.701-2.018-15.967-21.489-47.408-34.762-55.66l-60.275 1.426z" fill="#fcc1b7"/><g fill="#230034"><path d="m162.695 325.982c2.94.591 6.275 2.165 8.429 4.299.861.853 1.412 2.125 1.084 3.295-1.546 5.513-10.223 1.935-13.951 1.148-2.454-.518-12.379-2.286-9.224-6.711 2.543-3.568 9.993-2.768 13.662-2.031z"/><path d="m93.904 335.231c-2.405 1.792-4.746 4.641-5.78 7.491-.413 1.139-.368 2.525.429 3.442 3.756 4.322 10.068-2.624 13.102-4.929 1.997-1.518 10.212-7.361 5.467-10.011-3.825-2.138-10.217 1.771-13.218 4.007z"/><path d="m109.016 359.887c.529 3.69-1.161 6.984-3.775 7.359-2.613.375-5.16-2.313-5.689-6.002s1.161-6.984 3.774-7.359c2.614-.375 5.161 2.313 5.69 6.002z"/><path d="m159.72 353.417c.551 3.686-1.119 6.991-3.731 7.381s-5.174-2.282-5.725-5.968 1.12-6.991 3.731-7.381c2.612-.391 5.175 2.281 5.725 5.968z"/></g><path d="m103.389 379.58c1.068 5.741-3.966 11.493-11.244 12.847s-14.044-2.202-15.112-7.943 3.966-11.493 11.244-12.847 14.044 2.201 15.112 7.943z" fill="#f08d7e"/><path d="m191.789 366.142c1.068 5.741-3.966 11.493-11.244 12.847s-14.044-2.202-15.112-7.943 3.966-11.493 11.244-12.847 14.044 2.202 15.112 7.943z" fill="#f08d7e"/><path d="m126.456 372.031c-1.139 2.243-1.113 5.041.069 7.262.704 1.323 1.818 2.452 3.2 3.028 1.81.754 3.887.509 5.766-.053 1.802-.539 3.655-1.486 4.437-3.196-.956.331-1.925.665-2.934.743-2.82.22-5.6-1.792-6.458-4.487-.814-2.558.322-5.123 1.446-7.332-2.462.457-4.709 2.428-5.526 4.035z" fill="#f08d7e"/><path d="m137.588 400.042c-15.476 1.74-24.074-2.586-24.074-2.586.076.16.154.318.232.475 10.439 20.896 41.515 16.947 46.397-5.895.037-.172.072-.344.106-.518.001.001-7.19 6.332-22.661 8.524z" fill="#fff"/><path d="m181.181 282.8c-28.404-27.499-53.379-19.901-62.895-15.3-10.364-2.076-36.446-3.186-57.07 30.541 0 0-9.368 14.4-6.302 40.072l.957 7.532c23.745-7.514 56.275-29.438 64.92-58.435 15.621 25.913 52.6 39.006 77.47 40.344l-.957-7.532c-3.452-25.622-16.123-37.222-16.123-37.222z" fill="#230034"/></g></g></g></svg>