<svg id="Capa_3" enable-background="new 0 0 453.543 453.543" viewBox="0 0 453.543 453.543" xmlns="http://www.w3.org/2000/svg"><g><path d="m314.335 7.077c-63.177-19.793-97.802 28.529-97.802 28.529-14.854 19.306-11.245 46.998 8.061 61.851 19.306 14.854 46.998 11.245 61.851-8.061 3.548-4.611 6.031-9.704 7.509-14.983.751-2.073 1.232-4.398 1.373-7.011v-.006c.091-.825.153-1.652.197-2.478 1.996-20.066 14.708-39.99 21.749-49.664 2.186-3.002.604-7.067-2.938-8.177z" fill="#8cea93"/><path d="m80.671 110.298c50.392-42.938 101.167-12.02 101.167-12.02 21.224 11.953 28.74 38.849 16.787 60.073s-38.849 28.74-60.073 16.787c-5.069-2.855-9.347-6.57-12.774-10.849-1.502-1.614-2.854-3.565-4.007-5.915l-.003-.005c-.407-.724-.787-1.46-1.152-2.204-9.69-17.684-29.185-31.045-39.45-37.191-3.186-1.909-3.321-6.268-.495-8.676z" fill="#8cea93"/><path d="m227.62 231.677c-3.344-42.623-3.76-86.845 6.929-128.549 7.23-28.206 20.526-56.065 44.146-74.11 11.753-8.979 25.429-14.959 39.805-18.27 1.064-.245.613-1.881-.451-1.636-26.489 6.102-49.003 21.55-64.106 44.173-19.147 28.681-26.079 64.208-28.732 98.039-2.097 26.736-1.382 53.641.713 80.353.084 1.082 1.782 1.091 1.696 0z"/><path d="m80.248 115.448c42.801-10.522 88.823.799 121.677 30.198 8.45 7.561 15.901 16.171 22.2 25.596.604.903 2.074.055 1.465-.856-23.924-35.794-64.002-58.557-107.059-60.447-13.026-.572-26.078.761-38.735 3.872-1.059.262-.61 1.898.452 1.637z"/><path d="m453.543 451.227c-.625-124.724-101.9-225.647-226.772-225.647s-226.146 100.923-226.771 225.647z" fill="#b1e4fa"/><g fill="#8cea93"><path d="m70.594 391.658c.398 12.786-8.415 23.763-13.019 35.699-2.921 7.573-4.047 15.776-3.496 23.87h36.461c-2.975-3.444-5.164-7.446-6.133-12.108-2.014-9.694 1.796-19.546 5.534-28.714 6.157-15.102 12.951-31.028 26.258-40.457 16.07-11.387 40.609-12.707 49.323-30.37 6.734-13.65-.272-30.377-10.52-41.63-10.249-11.253-23.586-19.48-33.146-31.324-2.777-3.441-5.146-7.406-6.914-11.589-38.438 21.829-69.878 54.554-90.102 93.986 6.09 3.029 12.421 5.74 18.417 8.861 13.487 7.021 26.863 18.578 27.337 33.776z"/><path d="m290.33 298.381c3.849-8.633 5.815-17.959 8.329-27.07 2.845-10.309 6.444-20.407 10.715-30.211-25.597-10.015-53.456-15.519-82.602-15.519-9.517 0-18.895.595-28.104 1.733.897 13.243 6.51 26.211 16.007 35.517 6.183 6.058 13.949 10.799 18.217 18.33 6.145 10.841 4.029 25.783 12.728 34.705 6.599 6.767 17.826 7.465 26.33 3.34 8.505-4.125 14.531-12.192 18.38-20.825z"/><path d="m280.315 451.227h173.224c-.353-70.419-32.776-133.247-83.436-174.61-2.719 6.389-6.519 12.409-10.96 17.668-11.456 13.565-26.68 23.281-40.974 33.812-14.294 10.532-28.299 22.629-35.59 38.818-8.644 19.191-6.67 41.271-4.527 62.209.755 7.369 1.509 14.736 2.263 22.103z"/></g><path d="m105.331 451.227c-2.203-4.531-4.334-9.114-6.316-13.805-19.866-47.032-28.489-98.013-29.033-148.911-42.882 41.04-69.66 98.748-69.981 162.716z" fill="#64d7ff"/><path d="m70.594 391.658c.398 12.786-8.415 23.763-13.019 35.699-2.921 7.573-4.047 15.776-3.496 23.87h36.442c-2.973-3.44-5.145-7.449-6.113-12.108-1.917-9.23 1.445-18.601 4.998-27.39-13.074-39.636-18.974-81.435-19.424-123.184-18.207 17.425-33.531 37.837-45.142 60.476 6.09 3.029 12.421 5.74 18.417 8.861 13.487 7.021 26.863 18.578 27.337 33.776z" fill="#61d674"/><path d="m207.932 282.641c3.253 7.445 10.672 12.45 18.839 12.44 8.173-.011 15.58-4.98 18.839-12.44.433-.991-1.028-1.856-1.465-.856-3.027 6.928-9.747 11.591-17.374 11.599-7.624.008-14.352-4.682-17.374-11.599-.436-.999-1.898-.136-1.465.856z"/><path d="m205.04 268.166c-2.619-5.994-8.609-10.02-15.181-10.011-6.576.009-12.557 4.006-15.181 10.011-.433.991 1.028 1.856 1.465.856 2.392-5.475 7.684-9.164 13.716-9.171 6.029-.006 11.327 3.705 13.716 9.171.436.999 1.898.136 1.465-.856z"/><path d="m278.865 268.166c-2.619-5.994-8.609-10.02-15.181-10.011-6.576.009-12.557 4.006-15.181 10.011-.433.991 1.028 1.856 1.465.856 2.392-5.475 7.685-9.164 13.716-9.171 6.029-.007 11.327 3.705 13.716 9.171.436.999 1.898.136 1.465-.856z"/><ellipse cx="175.411" cy="284.979" fill="#f78595" rx="12.865" ry="12.865" transform="matrix(.212 -.977 .977 .212 -140.244 396.085)"/><ellipse cx="278.132" cy="284.979" fill="#f78595" rx="12.865" ry="12.865" transform="matrix(.107 -.994 .994 .107 -34.928 531.077)"/><path d="m365.884 300.09c.69-.105 1.222-.666 1.271-1.362.382-5.466 1.513-9.43 2.851-9.43s2.469 3.964 2.852 9.43c.049.696.581 1.257 1.27 1.362 3.181.483 5.377 1.506 5.377 2.692 0 1.187-2.196 2.21-5.377 2.692-.69.105-1.221.666-1.27 1.362-.382 5.465-1.514 9.43-2.852 9.43s-2.469-3.964-2.851-9.43c-.049-.697-.581-1.257-1.271-1.362-3.181-.483-5.377-1.506-5.377-2.692s2.196-2.209 5.377-2.692z" fill="#fff"/><path d="m388.16 331.685c1.111-.168 1.967-1.071 2.045-2.192.615-8.799 2.437-15.181 4.59-15.181s3.974 6.382 4.589 15.181c.079 1.121.935 2.024 2.045 2.192 5.122.778 8.656 2.425 8.656 4.334s-3.535 3.556-8.656 4.334c-1.11.169-1.966 1.071-2.045 2.192-.615 8.799-2.436 15.18-4.589 15.18s-3.975-6.382-4.59-15.18c-.078-1.121-.934-2.023-2.045-2.192-5.121-.778-8.655-2.426-8.655-4.334-.001-1.908 3.534-3.556 8.655-4.334z" fill="#fff"/></g></svg>