<?xml version="1.0" encoding="iso-8859-1"?>
<!-- Generator: Adobe Illustrator 26.5.1, SVG Export Plug-In . SVG Version: 6.00 Build 0)  -->
<svg xmlns="http://www.w3.org/2000/svg" xmlns:xlink="http://www.w3.org/1999/xlink" version="1.1" id="Capa_1" x="0px" y="0px" viewBox="0 0 512 512" style="enable-background:new 0 0 512 512;" xml:space="preserve">
<g>
	<path style="fill:#FFFFFF;" d="M256,512c-61.819,0-121.506-22.339-168.064-62.903c-24.279-21.138-44.13-46.298-59.001-74.78   C10.084,338.213,0.352,299.145,0.01,258.197C0,257.5,0,256.745,0,256c0-19.402,2.177-38.713,6.471-57.398   c11.539-50.389,37.851-95.656,76.092-130.898C121.011,32.27,168.585,9.719,220.142,2.489C231.95,0.837,244.014,0,256,0   c45.866,0,90.87,12.278,130.147,35.506c71.986,42.585,118.75,117.626,125.094,200.735C511.744,242.685,512,249.338,512,256   c0,1.566-0.014,3.129-0.042,4.688c-0.024,1.368-0.064,2.734-0.11,4.1l-0.014,0.505c-0.102,2.896-0.262,5.881-0.473,8.89   l-0.051,0.793c-0.008,0.119-0.02,0.238-0.033,0.356c-3.08,41.191-16.283,81.44-38.192,116.414   c-18.887,30.155-43.377,55.634-72.789,75.73C357.698,496.603,307.8,512,256,512z"/>
	<g>
		<g>
			<path style="fill:#F8BDFF;" d="M499.211,255.806c-2.56,257.068-343.974,340.364-464.91,113.862     C-2.164,301.212-2.732,213.585,32.926,144.61c1.482-2.868,3.012-5.688,4.562-8.459c4.225-7.526,8.7-14.687,13.416-21.5     c15.225-22.039,49.853-12.29,69.158-27.15c16.852-12.983,17.978-51.402,36.86-59.159c42.894-17.631,89.725-22.097,134.583-14.763     c0.805,0.133-3.808,2.645-3.009,2.783c0.825,0.143,7.062-2.088,7.888-1.937c4.639,0.847,9.249,1.819,13.83,2.926     c1.158,0.275,3.543,13.09,4.697,13.385c1.31,0.335,1.389-11.848,2.694-11.49c19.036,5.149,37.486,12.483,54.867,21.885     c0.443,0.236-0.626,6.193-0.185,6.436c0.278,0.154,2.065-5.409,2.341-5.252c0.895,0.481,1.78,0.981,2.666,1.492     c0.669,0.374,2.193,6.321,2.856,6.709c0.31,0.182-0.24-5.2,0.069-5.016c36.312,21.308,67.455,51.893,88.753,90.649     C487.605,170.027,498.72,210.159,499.211,255.806z"/>
		</g>
		<g>
			<g>
				<path style="fill:#412945;" d="M428.925,257.536c-0.231,23.752,66.927,44.292,61.335,64.974      c-0.115,0.443-0.231,0.876-0.356,1.318c-0.154,0.549-0.298,1.097-0.462,1.636c-24.58,86.761-92.583,145.006-170.692,166.621      c-7.639,2.115-20.72-25.249-27.756-23.885c-87.398,16.937-124.873,4.661-182.243-102.793      c-8.614-16.159-89.665-29.125-94.265-46.93c-14.898-57.6-8.796-121.177,18.44-173.868c1.482-2.868,3.012-5.688,4.562-8.459      h431.485c14.677,26.678,24.686,57.234,28.516,91.313C498.528,236.654,428.819,247.835,428.925,257.536z"/>
			</g>
			<g>
				<path style="fill:#E36352;" d="M326.296,478.131c-2.079,4.899-4.62,9.566-7.545,13.955      c-102.525,28.391-222.46-6.313-284.449-122.418c-3.503-6.573-6.679-13.32-9.509-20.211      c-1.725-4.183,24.251-19.823,22.774-24.103c-1.548-4.484-30.535,2.389-31.811-2.19c-0.443-1.559-0.866-3.118-1.27-4.687      c1.848-0.308,3.696-0.616,5.543-0.914c12.02-1.915,24.099-3.455,36.225-3.734c0.818-0.029,1.626-0.039,2.444-0.039      c1.771-0.029,3.542-0.01,5.312,0.029c7.969,0.183,15.995,1.03,23.81,2.714c0.683,0.144,1.367,0.298,2.05,0.462      c8.575,2.011,16.861,5.062,24.484,9.364c0.558,0.308,1.117,0.635,1.665,0.962h0.01c1.03,0.616,2.05,1.261,3.061,1.925      c12.203,8.055,21.76,19.238,29.863,31.519c4.033,6.102,7.699,12.482,11.154,18.882c5.611,10.394,12.396,22.222,24.022,24.311      c4.09,0.731,8.286,0.096,12.377-0.664c19.633-3.667,38.958-10.404,58.928-10.018c23.473,0.452,46.561,11.356,61.835,29.209      c7.324,8.565,13.002,18.979,13.907,30.21C331.878,461.385,329.703,470.105,326.296,478.131z"/>
			</g>
			<g>
				<g>
					<path style="fill:#F7EDE5;" d="M486.267,208.388L369.787,380.89l-220.834-20.124l-124.16-11.308       c-3.532-8.565-6.544-17.342-9.037-26.293l4.273-5.601l97.655-127.605L486.267,208.388z"/>
				</g>
				<g>
					<g>
						<g>
							<g>
								<path style="fill:#412945;" d="M42.49,334.671c-0.201,0-0.405-0.063-0.578-0.194c-0.424-0.32-0.509-0.923-0.19-1.348          l94.357-125.318c0.319-0.424,0.922-0.51,1.348-0.19c0.424,0.32,0.509,0.923,0.19,1.348L43.26,334.287          C43.071,334.538,42.782,334.671,42.49,334.671z"/>
							</g>
						</g>
						<g>
							<g>
								<path style="fill:#412945;" d="M74.188,337.803c-0.197,0-0.395-0.06-0.567-0.185c-0.429-0.314-0.523-0.915-0.209-1.345          l92.514-126.699c0.314-0.428,0.915-0.523,1.345-0.21c0.429,0.314,0.523,0.915,0.21,1.345L74.966,337.408          C74.778,337.666,74.485,337.803,74.188,337.803z"/>
							</g>
						</g>
						<g>
							<g>
								<path style="fill:#412945;" d="M105.886,340.936c-0.192,0-0.386-0.057-0.555-0.177c-0.434-0.307-0.537-0.908-0.23-1.342          l90.671-128.082c0.308-0.434,0.908-0.536,1.342-0.229c0.434,0.307,0.537,0.908,0.23,1.342L106.673,340.53          C106.485,340.795,106.188,340.936,105.886,340.936z"/>
							</g>
						</g>
						<g>
							<g>
								<path style="fill:#412945;" d="M137.584,344.069c-0.187,0-0.377-0.054-0.544-0.169c-0.438-0.301-0.55-0.899-0.249-1.337          l88.828-129.464c0.301-0.439,0.9-0.552,1.338-0.249c0.438,0.301,0.55,0.9,0.249,1.337l-88.828,129.464          C138.192,343.923,137.891,344.069,137.584,344.069z"/>
							</g>
						</g>
						<g>
							<g>
								<path style="fill:#412945;" d="M169.282,347.202c-0.183,0-0.368-0.052-0.532-0.161c-0.443-0.294-0.563-0.892-0.269-1.335          l86.985-130.847c0.295-0.443,0.891-0.564,1.335-0.269c0.443,0.294,0.563,0.892,0.269,1.335l-86.985,130.847          C169.899,347.052,169.594,347.202,169.282,347.202z"/>
							</g>
						</g>
						<g>
							<g>
								<path style="fill:#412945;" d="M200.98,350.335c-0.178,0-0.359-0.05-0.52-0.153c-0.447-0.288-0.576-0.883-0.288-1.33          l85.142-132.228c0.288-0.448,0.884-0.575,1.331-0.289c0.447,0.288,0.576,0.883,0.288,1.33L201.79,349.893          C201.606,350.179,201.297,350.335,200.98,350.335z"/>
							</g>
						</g>
						<g>
							<g>
								<path style="fill:#412945;" d="M232.678,353.468c-0.174,0-0.35-0.047-0.508-0.146c-0.451-0.281-0.588-0.875-0.307-1.326          l83.299-133.611c0.281-0.451,0.875-0.588,1.326-0.307c0.451,0.281,0.589,0.875,0.308,1.326l-83.299,133.611          C233.313,353.308,233,353.468,232.678,353.468z"/>
							</g>
						</g>
						<g>
							<g>
								<path style="fill:#412945;" d="M264.376,356.601c-0.169,0-0.341-0.044-0.496-0.138c-0.455-0.274-0.602-0.867-0.327-1.321          l81.456-134.992c0.273-0.456,0.864-0.602,1.321-0.327c0.455,0.275,0.602,0.867,0.327,1.322l-81.456,134.993          C265.02,356.435,264.702,356.601,264.376,356.601z"/>
							</g>
						</g>
						<g>
							<g>
								<path style="fill:#412945;" d="M296.074,359.733c-0.165,0-0.332-0.042-0.484-0.132c-0.459-0.268-0.614-0.857-0.346-1.316          l79.614-136.375c0.268-0.459,0.857-0.615,1.317-0.346c0.459,0.268,0.614,0.857,0.346,1.316l-79.614,136.375          C296.727,359.562,296.405,359.733,296.074,359.733z"/>
							</g>
						</g>
					</g>
					<g>
						
							<rect x="318.968" y="352.281" transform="matrix(0.4855 -0.8742 0.8742 0.4855 -138.8484 470.5609)" style="fill:#412945;" width="22.77" height="1.924"/>
					</g>
				</g>
			</g>
			<g>
				<g>
					<g>
						<g>
							<g>
								<path style="fill:#FF9582;" d="M65.343,109.119c0,0,15.235,23.098,17.692,45.213c2.457,22.115-1.474,41.281,1.966,61.922          c3.44,20.641,10.32,35.875,29.486,33.418c0,0,7.372,11.303,19.658,9.829c12.286-1.474,16.709-9.829,16.709-9.829          s-0.983,15.726,19.166,13.76c20.149-1.966,23.098-40.79,23.098-40.79s22.684,97.352,60.637,80.734          c1.314-0.575,2.037-1.996,1.677-3.384c-2.819-10.848-14.818-57.527-16.118-70.96c-1.474-15.235-3.931-38.332-8.846-50.618          c-4.914-12.286-28.504-39.807-37.35-59.956c-8.846-20.149-28.995-62.904-28.995-62.904S113.013,38.843,65.343,109.119z"/>
							</g>
						</g>
						<g>
							<path style="fill:#412945;" d="M257.417,301.062c-0.144-0.537-14.413-53.87-16.668-75.133         c-2.034-19.18-5.008-42.383-9.993-51.642c-0.378-0.701-1.254-0.966-1.955-0.587c-0.702,0.378-0.965,1.253-0.587,1.955         c4.747,8.816,7.658,31.661,9.665,50.578c2.112,19.916,14.575,67.379,16.502,74.642c-4.571,3.38-9.02,4.517-13.568,3.481         c-12.996-2.964-24.618-23.766-33.291-41.558c-12.518-25.679-15.888-50.419-15.92-50.666c-0.104-0.79-0.829-1.348-1.62-1.243         c-0.79,0.104-1.347,0.829-1.243,1.619c0.013,0.102,0.583,4.296,2.102,10.984c-0.06,0.124-0.108,0.255-0.131,0.397         c-0.029,0.186-2.97,18.641-6.801,28.536c-2.116,5.465-10.01,10.268-17.239,10.487c-4.143,0.099-9.751-1.151-12.865-7.946         c-6.962-15.189-4.487-42.563-4.462-42.837c0.074-0.794-0.508-1.498-1.302-1.572c-0.786-0.081-1.498,0.508-1.572,1.302         c-0.093,0.986-1.904,21.069,2.13,36.807c-0.037,0.038-0.076,0.071-0.11,0.114c-5.482,6.995-11.183,10.417-16.935,10.213         c-8.517-0.322-14.774-8.592-15.737-9.94c-3.106-11.914-2.19-40.002-2.18-40.287c0.027-0.796-0.597-1.464-1.393-1.492         c-0.779-0.055-1.465,0.597-1.492,1.394c-0.04,1.186-0.953,29.187,2.342,41.379c0.041,0.15,0.106,0.293,0.192,0.423         c0.298,0.448,7.435,10.992,18.142,11.407c0.217,0.008,0.433,0.012,0.649,0.012c6.072,0,11.949-3.319,17.497-9.872         c0.475,1.446,1.004,2.84,1.605,4.152c2.858,6.234,8.151,9.639,14.951,9.638c0.207,0,0.416-0.003,0.626-0.009         c8.408-0.254,17.31-5.786,19.844-12.33c2.583-6.673,4.717-16.776,5.915-23.166c2.485,9.378,6.415,21.464,12.409,33.761         c9.511,19.511,21.137,39.891,35.244,43.108c1.277,0.29,2.553,0.436,3.829,0.436c4.345,0,8.676-1.687,12.919-5.039         C257.37,302.212,257.566,301.619,257.417,301.062z"/>
						</g>
						<g>
							<g>
								<path style="fill:#412945;" d="M251.312,302.341c-0.579,0-1.187-0.052-1.821-0.158c-4.964-0.829-9.668-4.055-12.582-8.628          c-2.615-4.102-3.885-9.334-3.576-14.727c0.168-2.933,0.778-5.31,1.864-7.264c1.427-2.567,3.697-4.34,6.228-4.867          c2.979-0.619,6.145,0.717,7.525,3.18c0.389,0.695,0.142,1.575-0.554,1.965c-0.696,0.39-1.576,0.142-1.965-0.554          c-0.768-1.37-2.663-2.133-4.417-1.764c-1.684,0.351-3.289,1.638-4.293,3.444c-0.87,1.565-1.363,3.537-1.505,6.026          c-0.274,4.793,0.837,9.414,3.129,13.011c2.481,3.894,6.453,6.634,10.623,7.331c0.847,0.14,2.925,0.352,3.934-0.752          c0.539-0.589,1.45-0.629,2.039-0.092c0.589,0.538,0.629,1.451,0.091,2.039C254.944,301.721,253.304,302.341,251.312,302.341          z"/>
							</g>
						</g>
					</g>
					<g>
						<g>
							<path style="fill:#F7EDE5;" d="M182.31,78.156L61.413,126.324L50.903,114.65c28.516-41.287,65.511-69.669,106.019-86.309         L182.31,78.156z"/>
						</g>
						<g>
							<path style="fill:#412945;" d="M160.46,54.242c2.85,4.936,2.62,10.404-0.515,12.214c-3.134,1.809-7.985-0.725-10.835-5.661         c-2.85-4.936-2.62-10.404,0.515-12.214C152.759,46.771,157.61,49.305,160.46,54.242z"/>
						</g>
					</g>
				</g>
				<g>
					<g>
						<polygon style="fill:#6E72FF;" points="327.473,328.689 329.93,353.753 352.836,335.674 369.285,296.818 341.765,288.463               "/>
					</g>
					<g>
						<g>
							<path style="fill:#FF9582;" d="M499.211,255.806c-0.231,23.752-3.359,46.022-8.95,66.704         c-0.115,0.443-0.231,0.876-0.356,1.318c-14.234,1.838-31.5,3.195-44.675,1.521c-27.024-3.436-45.214-16.707-45.214-16.707         s-0.568,0.703-1.617,1.79c-2.935,3.089-9.682,9.297-18.035,11.482c-8.113,2.108-12.675-1.078-14.609-3.06         c-0.76-0.78-1.116-1.367-1.116-1.367c-1.723,0.568-3.205,0.847-4.475,0.885c-5.361,0.173-7.054-3.667-7.584-5.832         c-0.202-0.847-0.231-1.444-0.231-1.444c-0.423,0.462-0.847,0.895-1.27,1.28c-7.17,6.718-14.349,3.898-17.381,2.156         c-0.404-0.231-0.732-0.433-0.982-0.606c-0.337-0.231-0.52-0.375-0.52-0.375l0.087-1.55l0.404-7.295         c-0.597,0.664-1.155,1.232-1.713,1.732h-0.01c-5.226,4.716-8.662,2.493-10.173,0.885c-0.577-0.616,1.819-3.263,1.819-3.263         s-2.743,1.434-2.839,0.241c-0.298-4.119-1.059-14.292-1.771-23.271v-0.01c0-0.356,2.839-0.029,2.81-0.385         c-0.058-0.722-3.012-2.117-3.07-2.82c-0.289-3.503-0.558-6.66-0.78-8.979c-0.982-10.327-7.372-33.424-6.881-37.351         c0.5-3.936,8.854-8.354,16.717-11.799c7.863-3.436,23.589-16.707,36.36-23.589c5.669-3.051,9.98-2.425,14.099-0.443         c5.168,2.483,10.028,7.103,16.861,9.287c0.443,0.145,0.885,0.279,1.328,0.404c0.616,0.192,1.241,0.366,1.857,0.539         c1.752,0.481,3.503,0.905,5.255,1.28c9.547,2.088,18.979,2.984,26.947,5.64c10.317,3.445,16.707,15.726,50.122,16.216         c6.054,0.087,12.069-0.51,17.862-1.559C498.528,236.654,499.105,246.105,499.211,255.806z"/>
						</g>
						<g style="opacity:0.51;">
							<path style="fill:#412945;" d="M499.211,255.806c-0.231,23.752-3.359,46.022-8.95,66.704         c-0.115,0.443-0.231,0.876-0.356,1.318c-14.234,1.838-31.5,3.195-44.675,1.521c-27.024-3.436-45.214-16.707-45.214-16.707         s-0.568,0.703-1.617,1.79c-2.935,3.089-9.682,9.297-18.035,11.482c-8.113,2.108-12.675-1.078-14.609-3.06         c-0.76-0.78-1.116-1.367-1.116-1.367c-1.723,0.568-3.205,0.847-4.475,0.885c-5.361,0.173-7.054-3.667-7.584-5.832         c-0.202-0.847-0.231-1.444-0.231-1.444c-0.423,0.462-0.847,0.895-1.27,1.28c-7.17,6.718-14.349,3.898-17.381,2.156         c-0.404-0.231-0.732-0.433-0.982-0.606c-0.337-0.231-0.52-0.375-0.52-0.375l0.087-1.55l0.404-7.295         c-0.597,0.664-1.155,1.232-1.713,1.732h-0.01c-5.226,4.716-8.662,2.493-10.173,0.885c-0.577-0.616,1.819-3.263,1.819-3.263         s-2.743,1.434-2.839,0.241c-0.298-4.119-1.059-14.292-1.771-23.271v-0.01c0-0.356,2.839-0.029,2.81-0.385         c-0.058-0.722-3.012-2.117-3.07-2.82c-0.289-3.503-0.558-6.66-0.78-8.979c-0.982-10.327-7.372-33.424-6.881-37.351         c0.5-3.936,8.854-8.354,16.717-11.799c7.863-3.436,23.589-16.707,36.36-23.589c5.669-3.051,9.98-2.425,14.099-0.443         c5.168,2.483,10.028,7.103,16.861,9.287c0.443,0.145,0.885,0.279,1.328,0.404c0.616,0.192,1.241,0.366,1.857,0.539         c1.752,0.481,3.503,0.905,5.255,1.28c9.547,2.088,18.979,2.984,26.947,5.64c10.317,3.445,16.707,15.726,50.122,16.216         c6.054,0.087,12.069-0.51,17.862-1.559C498.528,236.654,499.105,246.105,499.211,255.806z"/>
						</g>
						<g>
							<g>
								<path style="fill:#412945;" d="M446.212,324.416c-7.151-0.847-20.018-3.975-34.656-10.221          c-13.002-5.553-21.587-13.868-21.673-13.955c-0.231-0.221-0.52-0.337-0.818-0.375c0.221-2.271-0.289-4.523-1.511-6.631          c5.081-1.453,10.384-3.368,15.331-5.909c0.712-0.366,0.991-1.241,0.626-1.944c-0.366-0.712-1.232-0.991-1.944-0.625          c-16.717,8.594-38.515,9.903-38.737,9.913c-0.125,0.01-0.25,0.029-0.366,0.077c-0.404,0.135-0.741,0.433-0.895,0.847          c-0.048,0.125-4.86,12.328-15.033,17.41c-5.63,2.82-9.422,1.944-11.453,0.895c3.32-1.703,8.758-5.726,8.383-13.676          c-0.202-4.158-1.328-7.025-2.685-8.998c-1.963-2.82-4.389-3.782-5.255-4.052c0.818-5.63,1.915-10.048,3.32-11.395          c3.263-3.099,20.124-11.568,31.278-17.179c6.15-3.089,11.01-5.534,12.492-6.487c4.119-2.666,9.999-6.342,10.057-6.371          c0.674-0.423,0.876-1.318,0.462-1.992c-0.424-0.674-1.319-0.885-1.992-0.462c-0.029,0.019-1.983,1.242-4.427,2.791          c-1.395,0.876-2.964,1.877-4.417,2.801c-0.433,0.279-0.847,0.548-1.251,0.808c-0.751,0.491-2.656,1.492-5.207,2.791          c-0.019-0.019-0.029-0.039-0.048-0.058c-0.202-0.231-0.472-0.414-0.799-0.472c-5.88-1.213-13.156-5.284-16.63-7.372          c-0.491-0.298-0.895-0.549-1.222-0.751l3.012-15.504c0.154-0.78-0.366-1.54-1.145-1.684c-0.78-0.154-1.54,0.356-1.694,1.136          l-3.041,15.697l-3.455,1.376l-12.627-8.883c-0.654-0.462-1.559-0.308-2.011,0.346c-0.462,0.655-0.308,1.549,0.346,2.012          l12.617,8.873c-0.183,3.099-0.934,14.513-2.377,20.056c-0.01,0.058-0.019,0.116-0.019,0.173          c-4.86,2.676-8.392,4.841-9.893,6.265c-4.071,3.878-5.438,22.241-5.88,32.751c-0.164,3.551-0.202,6.208-0.221,7.103          c0,0.01,0.01,0.019,0.01,0.029c0,0.125,0.01,0.26,0.048,0.385c0,0.019,0.019,0.029,0.019,0.048          c0.029,0.068,0.058,0.125,0.087,0.183c0.048,0.096,0.096,0.183,0.154,0.26c0.019,0.019,0.019,0.048,0.039,0.058          c0.048,0.067,0.404,0.462,1.059,0.962c1.28,0.972,3.705,2.339,7.276,2.339c2.319,0,5.11-0.577,8.392-2.214          c1.232-0.626,2.396-1.338,3.484-2.108c0.366,1.174,1.242,3.07,3.311,4.427c1.395,0.924,3.089,1.453,5.062,1.578          c0.318,0.029,0.645,0.038,0.982,0.038c1.54,0,3.234-0.221,5.081-0.674c0.568-0.135,1.155-0.289,1.752-0.472          c10.317-3.108,18.517-9.21,20.884-15.552V302.8c1.28,1.184,4.793,4.263,10.009,7.632c3.349,2.165,7.401,4.446,12.021,6.419          c12.482,5.332,26.072,9.326,35.455,10.423c1.28,0.154,3.407,0.231,6.15,0.231c8.671,0,23.54-0.722,37.418-2.04          c0.164-0.539,0.308-1.087,0.462-1.636c0.125-0.443,0.241-0.876,0.356-1.318          C471.975,324.301,451.534,325.032,446.212,324.416z M352.011,247.472l3.368-1.347c0.443,0.279,1.107,0.693,1.925,1.184          c3.349,1.992,9.441,5.341,15.042,6.939c-1.126,0.568-2.3,1.165-3.522,1.771c-6.872,3.455-13.272,6.689-18.555,9.509          c-0.058,0.029-0.125,0.067-0.183,0.096C351.241,259.521,351.848,250.407,352.011,247.472z M335.14,290.106          c0.991,0.424,3.051,1.636,4.34,4.783c0.568,1.405,0.991,3.195,1.097,5.467c0.318,6.535-4.215,9.73-6.891,11.048          c0-0.077,0-0.154,0.01-0.231C333.851,304.773,334.322,296.872,335.14,290.106z M385.686,301.819          c-2.069,5.524-9.528,10.942-19.017,13.801c-2.156,0.645-4.09,0.982-5.765,1.001c-1.896,0.039-3.465-0.327-4.639-1.087          c-2.011-1.299-2.31-3.339-2.319-3.455c-0.029-0.193-0.087-0.375-0.173-0.529c5.842-5.12,9.095-11.703,10.125-14.051          c1.039-0.077,2.897-0.241,5.332-0.549c3.975-0.51,9.48-1.405,15.485-2.945c0.039,0.116,0.087,0.231,0.154,0.337          C386.369,296.728,386.648,299.239,385.686,301.819z"/>
							</g>
							<g>
								<path style="fill:#412945;" d="M317.737,277.82c0.087,1.049,0.173,2.117,0.26,3.214c3.147,1.549,7.132,5.043,6.862,12.819          c-0.173,4.793-3.522,8.816-5.091,10.452c0.096,1.193,0.144,1.877,0.144,1.877s0.298,0.529,0.876,1.145          c0.029-0.01,0.048-0.029,0.067-0.048c0.27-0.231,6.621-5.803,6.881-13.329C328.112,283.412,321.712,279.331,317.737,277.82z          "/>
							</g>
						</g>
					</g>
					<g>
						<polygon style="fill:#6E72FF;" points="431.465,136.145 420.965,161.927 418.137,162.195 420.243,163.717 386.501,246.6         349.891,266.502 393.305,154.074 395.53,153.902 394.008,152.275 403.459,127.791       "/>
					</g>
					<g>
						<g>
							<g>
								<polygon style="fill:#412945;" points="420.965,161.927 420.243,163.717 393.305,154.074 394.008,152.275         "/>
							</g>
						</g>
						<g>
							<g>
								<path style="fill:#412945;" d="M394.118,212.547c-0.113,0-0.228-0.02-0.34-0.062c-0.497-0.188-0.748-0.742-0.561-1.24          l14.743-39.07c0.187-0.497,0.743-0.748,1.24-0.56c0.497,0.188,0.748,0.743,0.561,1.241l-14.743,39.07          C394.873,212.31,394.506,212.547,394.118,212.547z"/>
							</g>
						</g>
					</g>
				</g>
			</g>
			<g>
				<g>
					<path style="fill:#E36352;" d="M286.731,17.986c3.166-1.232,6.381-2.483,9.653-3.561c-1.626-0.298-3.243-0.577-4.879-0.847       c-1.906,0.693-3.782,1.424-5.649,2.156c-4.812,1.877-9.797,3.821-14.831,5.062c-13.454,3.339-28.304,1.761-40.758-4.302       c-0.606-0.298-1.318-0.048-1.607,0.549c-0.298,0.597-0.048,1.328,0.549,1.617c6.265,3.06,13.118,5.014,20.105,5.823       c-1.184,1.145-1.915,2.753-1.915,4.514c0,2.926,2.002,5.38,4.706,6.082l-21.924,68.629h-10.538c0,0,8.623,21.25,30.807,20.634       c22.183-0.606,30.499-20.634,30.499-20.634h-7.824l-17.93-68.61c2.743-0.683,4.783-3.157,4.783-6.102       c0-1.559-0.577-2.993-1.53-4.09c4.446-0.115,8.873-0.702,13.156-1.761C276.79,21.855,281.842,19.891,286.731,17.986z        M270.63,103.707h-37.919l20.855-65.299L270.63,103.707z M253.682,32.874c-2.136,0-3.878-1.742-3.878-3.878       c0-2.137,1.742-3.878,3.878-3.878c2.137,0,3.878,1.742,3.878,3.878C257.561,31.132,255.819,32.874,253.682,32.874z        M317.605,166.485V19.247c-2.454-0.674-4.918-1.309-7.391-1.896v144.168l1.617,2.926l-1.617,2.252l-39.738,18.036l90.572-0.934       L317.605,166.485z M395.425,103.707l-15.206-58.206c-0.972-0.577-1.944-1.145-2.926-1.694l15.649,59.9h-37.928l19.614-61.392       c-0.712-0.404-1.434-0.799-2.156-1.184l-19.989,62.576h-10.538c0,0,8.633,21.25,30.816,20.634       c22.174-0.606,30.489-20.634,30.489-20.634H395.425z"/>
				</g>
				<g>
					<polygon style="fill:#412945;" points="317.608,166.487 310.217,166.693 310.217,161.522      "/>
				</g>
			</g>
		</g>
	</g>
</g>
<g>
</g>
<g>
</g>
<g>
</g>
<g>
</g>
<g>
</g>
<g>
</g>
<g>
</g>
<g>
</g>
<g>
</g>
<g>
</g>
<g>
</g>
<g>
</g>
<g>
</g>
<g>
</g>
<g>
</g>
</svg>
