<?xml version="1.0" encoding="UTF-8"?>
<!-- Generator: Adobe Illustrator 25.2.1, SVG Export Plug-In . SVG Version: 6.00 Build 0)  -->
<svg xmlns="http://www.w3.org/2000/svg" xmlns:xlink="http://www.w3.org/1999/xlink" version="1.1" id="Capa_1" x="0px" y="0px" viewBox="0 0 512 512" style="enable-background:new 0 0 512 512;" xml:space="preserve" width="512" height="512">
<g>
	<g>
		<g>
			<g>
				<path style="fill:#00D5FE;" d="M325.766,217.701c-7.092,0-14.313-1.106-21.464-3.289c-1.487-0.465-2.527-1.762-2.663-3.311      c-0.136-1.544,0.658-3.001,2.027-3.712c5.634-2.913,19.962-11.148,32.135-25.077c-47.512-18.025-87.239-61.04-69.182-116.783      c11.2-34.58,45.042-56.059,88.315-56.059c5.573,0,11.217,0.381,16.775,1.133c46.005,6.256,81.307,26.317,99.409,56.49      c15.605,26.045,16.436,56.569,2.222,81.656c-15.62,27.567-46.525,43.374-84.796,43.374c-1.586,0-3.177-0.025-4.801-0.079      c-18.366,17.015-37.876,25.654-57.972,25.656C325.768,217.701,325.768,217.701,325.766,217.701z"/>
				<path style="opacity:0.75;fill:#FFFFFF;" d="M294.969,71.486l-0.072,0.104c-2.268,3.254-7.374,0.866-6.332-2.963      c10.287-37.585,57.917-49.944,93.957-36.612c3.472,1.283,2.531,6.479-1.186,6.442C345.188,38.1,315.721,41.705,294.969,71.486z"/>
				<g style="opacity:0.25;">
					<path style="fill:#322BBF;" d="M383.64,190.014c-0.427-0.015-0.838,0.146-1.167,0.443       c-18.589,17.253-45.158,31.91-77.581,22.015c-1.497-0.467-1.697-2.553-0.29-3.285c6.606-3.415,20.878-11.833,33.07-25.938       c0.708-0.81,0.432-2.08-0.49-2.557c19.219-20.78,65.028-4.174,89.049-28.277c19.139-19.221,16.696-49.119,30.038-71.655       c3.996-6.728,8.306-10.768,13.109-12.625C501.487,121.726,467.774,192.889,383.64,190.014z"/>
				</g>
			</g>
			<path style="fill:#000E3F;" d="M354.931,11.496c5.495,0,11.015,0.374,16.505,1.117c50.037,6.802,82.036,29.005,97.94,55.522     c31.477,52.534-0.313,121.963-80.833,121.963c-1.62,0-3.244-0.027-4.903-0.084c-0.019-0.001-0.036-0.001-0.054-0.001     c-0.407,0-0.797,0.159-1.112,0.444c-14.427,13.388-33.659,25.216-56.704,25.216c-6.649,0-13.616-0.985-20.878-3.201     c-1.497-0.466-1.696-2.552-0.29-3.285c6.606-3.414,20.877-11.832,33.069-25.939c0.709-0.809,0.432-2.08-0.489-2.556     c-0.048-0.04-0.124-0.085-0.205-0.104c-48.107-18.066-85.945-60.368-68.43-114.434C280.459,29.383,316.918,11.498,354.931,11.496      M354.939,7.441c-0.001,0-0.007,0-0.007,0c-44.182,0.002-78.76,22.021-90.241,57.463c-18.119,55.928,20.46,99.263,67.64,118.228     c-11.499,12.375-24.362,19.752-29.59,22.453c-2.112,1.1-3.333,3.334-3.122,5.701c0.212,2.368,1.808,4.353,4.066,5.056     c7.366,2.248,14.788,3.385,22.084,3.385c20.388,0,40.144-8.621,58.737-25.63c1.328,0.037,2.67,0.055,4.037,0.055     c39.02,0,70.57-16.184,86.558-44.401c14.579-25.731,13.739-57.021-2.247-83.7c-18.42-30.712-54.244-51.116-100.872-57.456     C366.332,7.83,360.598,7.441,354.939,7.441L354.939,7.441z"/>
		</g>
		<g>
			<g>
				<path style="fill:#FFCF00;" d="M425.464,117.722c-7.007,29.788-36.824,48.248-66.612,41.241      c-13.841-3.256-25.223-11.434-32.765-22.233c-8.691-12.478-12.227-28.432-8.476-44.379      c7.007-29.788,36.824-48.248,66.612-41.241c15.023,3.534,27.163,12.867,34.589,25.074      C426.153,88.182,428.938,102.956,425.464,117.722z"/>
				<path style="fill:#FFFFFF;" d="M385.854,88.031c3.609,2.162,4.363,4.529,2.93,8.063c-7.925,19.536-32.042,11.091-28.443-8.395      C361.778,79.919,379.107,83.989,385.854,88.031z"/>
				<g>
					<g>
						<path style="fill:#FC09B2;" d="M385.371,114.086c-1.209,5.141,4.134,10.796,11.934,12.631        c7.8,1.835,15.104-0.845,16.313-5.986c1.21-5.141-4.133-10.796-11.934-12.631        C393.885,106.265,386.581,108.945,385.371,114.086z"/>
					</g>
					<g>
						<path style="fill:#FC09B2;" d="M326.873,100.325c-1.209,5.141,4.134,10.796,11.934,12.631        c7.8,1.835,15.104-0.845,16.313-5.986c1.209-5.141-4.134-10.796-11.934-12.631C335.386,92.504,328.083,95.184,326.873,100.325        z"/>
					</g>
				</g>
				<path style="opacity:0.5;fill:#FD8A02;" d="M425.464,117.722c-7.007,29.788-36.824,48.248-66.612,41.241      c-13.841-3.256-25.223-11.434-32.765-22.233c76.411,11.226,90.324-38.238,92.725-60.546      C426.153,88.182,428.938,102.956,425.464,117.722z"/>
			</g>
			<g>
				<path style="fill:#000E3F;" d="M371.652,162.483c-4.415,0-8.859-0.512-13.264-1.549c-13.788-3.242-25.849-11.428-33.964-23.043      c-9.314-13.378-12.517-30.143-8.785-46.005c3.511-14.934,12.628-27.604,25.666-35.678c13.039-8.075,28.438-10.589,43.382-7.07      c15.083,3.546,27.817,12.779,35.857,25.993c7.926,12.959,10.376,28.25,6.892,43.055l0,0      c-3.511,14.934-12.628,27.604-25.669,35.678C392.574,159.556,382.203,162.483,371.652,162.483z M371.432,51.645      c-9.807,0-19.445,2.719-27.99,8.01c-12.12,7.503-20.591,19.279-23.858,33.162c-3.467,14.741-0.49,30.323,8.166,42.756      c7.54,10.794,18.752,18.401,31.568,21.417c13.882,3.269,28.198,0.933,40.316-6.572c12.118-7.503,20.591-19.279,23.857-33.162      l0,0c3.237-13.756,0.96-27.968-6.409-40.012c-7.473-12.284-19.307-20.863-33.325-24.162      C379.665,52.12,375.532,51.645,371.432,51.645z"/>
				<path style="fill:#000E3F;" d="M340.514,89.946c-0.866,0-1.668-0.559-1.938-1.43c-0.329-1.069,0.27-2.203,1.341-2.534      l12.395-3.823l-9.391-8.943c-0.812-0.772-0.841-2.054-0.069-2.866c0.772-0.812,2.054-0.839,2.866-0.069l10.074,9.594      c0.911,0.869,1.279,2.116,0.992,3.338c-0.29,1.222-1.178,2.175-2.378,2.544l-13.296,4.1      C340.913,89.919,340.712,89.946,340.514,89.946z M352.994,82.809h0.027H352.994z"/>
				<path style="fill:#000E3F;" d="M406.937,105.57c-0.503,0-1.005-0.185-1.398-0.559l-10.074-9.596      c-0.91-0.868-1.279-2.116-0.992-3.338c0.29-1.222,1.178-2.175,2.378-2.544l13.296-4.098c1.059-0.339,2.202,0.272,2.534,1.341      c0.329,1.069-0.27,2.205-1.341,2.534l-12.395,3.821l9.391,8.945c0.812,0.772,0.842,2.054,0.069,2.866      C408.006,105.36,407.471,105.57,406.937,105.57z"/>
			</g>
		</g>
	</g>
	<g>
		<g>
			<g>
				<path style="fill:#00D5FE;" d="M276.834,508.058c-8.26,0-16.513-1.71-24.528-5.085c-1.341-0.574-2.19-1.886-2.17-3.343      c0.02-1.455,0.903-2.742,2.249-3.276c5.083-2,18.015-7.768,29.668-18.534c-39.556-20.054-69.8-60.749-49.259-107.3      c11.425-25.894,37.92-41.353,70.874-41.353c8.386,0,16.862,1.019,25.189,3.031c39.314,9.512,68.128,30.049,81.136,57.823      c10.606,22.675,9.322,48.183-3.435,68.232c-13.571,21.331-38.175,33.565-67.502,33.565c-5.142,0-10.487-0.371-15.889-1.101      C307.85,502.218,292.253,508.058,276.834,508.058z"/>
				<path style="opacity:0.75;fill:#FFFFFF;" d="M260.47,379.488l-0.071,0.083c-2.25,2.613-6.454,0.094-5.213-3.125      c12.233-31.591,54.522-38.052,84.507-23.323c2.888,1.418,1.613,5.828-1.597,5.466      C306.864,355.072,281.06,355.574,260.47,379.488z"/>
				<g style="opacity:0.25;">
					<path style="fill:#322BBF;" d="M323.19,488.672c-0.368-0.051-0.738,0.052-1.049,0.28       c-17.608,13.27-41.886,23.588-69.049,12.153c-1.254-0.537-1.241-2.359,0.041-2.867c6.016-2.366,19.106-8.38,30.902-19.497       c0.684-0.637,0.558-1.761-0.196-2.254c18.465-16.265,56.608,2.162,79.522-16.551c18.259-14.924,18.799-40.997,32.338-59.303       c4.053-5.464,8.14-8.575,12.458-9.755C431.169,440.075,395.696,498.627,323.19,488.672z"/>
				</g>
			</g>
			<path style="fill:#000E3F;" d="M303.665,331.194c8.225-0.001,16.569,1.006,24.717,2.974c42.67,10.324,68.371,32.366,79.773,56.71     c21.264,45.459-7.417,98.911-69.099,98.911c-5.073,0-10.357-0.361-15.867-1.117c-0.062-0.009-0.123-0.012-0.184-0.012     c-0.306,0-0.605,0.104-0.865,0.293c-12.284,9.257-27.815,17.078-45.307,17.078c-7.581,0-15.528-1.468-23.741-4.926     c-1.253-0.537-1.241-2.358,0.041-2.867c6.016-2.367,19.105-8.38,30.901-19.497c0.684-0.637,0.558-1.761-0.195-2.254     c-0.039-0.039-0.099-0.084-0.17-0.109c-39.999-19.894-68.968-59.838-49.021-105.039     C246.761,343.886,274.464,331.194,303.665,331.194 M303.667,327.139L303.667,327.139c-33.781,0-60.969,15.912-72.728,42.563     c-20.652,46.8,8.56,87.751,47.558,108.571c-10.807,9.302-22.196,14.362-26.848,16.194c-2.123,0.843-3.509,2.857-3.54,5.137     c-0.031,2.282,1.298,4.334,3.388,5.229c8.289,3.489,16.805,5.253,25.337,5.253c15.637,0,31.408-5.804,46.887-17.253     c5.213,0.67,10.366,1.01,15.336,1.01c30.035,0,55.262-12.575,69.213-34.5c13.13-20.639,14.46-46.875,3.558-70.181     c-13.276-28.346-42.571-49.275-82.491-58.933C320.85,328.178,312.214,327.139,303.667,327.139L303.667,327.139z"/>
		</g>
		<g>
			<path style="fill:#322BBF;" d="M278.229,418.775c-1.598,0-3.182-0.267-4.704-0.794c-3.628-1.255-6.55-3.848-8.228-7.302     c-1.678-3.455-1.91-7.355-0.653-10.982c2.004-5.788,7.463-9.676,13.585-9.676c1.599,0,3.18,0.267,4.702,0.794     c7.49,2.593,11.472,10.799,8.879,18.287c-2.002,5.786-7.458,9.673-13.578,9.673C278.229,418.775,278.229,418.775,278.229,418.775     z"/>
			<path style="fill:#322BBF;" d="M319.03,432.905c-1.599,0-3.18-0.267-4.702-0.794c-7.49-2.594-11.472-10.799-8.879-18.287     c2.002-5.788,7.461-9.676,13.583-9.676c1.598,0,3.18,0.267,4.702,0.794c7.488,2.593,11.472,10.796,8.881,18.287     C330.611,429.018,325.152,432.905,319.03,432.905L319.03,432.905z"/>
			<path style="fill:#322BBF;" d="M359.836,447.032c-1.599,0-3.18-0.267-4.702-0.794c-3.628-1.257-6.55-3.851-8.228-7.305     c-1.678-3.455-1.91-7.355-0.654-10.982c2.005-5.786,7.464-9.673,13.583-9.673c1.599,0,3.182,0.267,4.704,0.794     c3.628,1.255,6.55,3.848,8.228,7.302c1.675,3.455,1.908,7.354,0.651,10.982C371.417,443.142,365.958,447.032,359.836,447.032     L359.836,447.032z"/>
		</g>
		<g>
			<path style="fill:#000E3F;" d="M278.227,392.047c1.34,0,2.703,0.22,4.041,0.683c6.444,2.232,9.859,9.263,7.628,15.709     c-1.769,5.106-6.551,8.311-11.668,8.311c-1.34,0-2.703-0.22-4.041-0.683c-6.444-2.231-9.859-9.263-7.628-15.709     C268.327,395.252,273.111,392.047,278.227,392.047 M278.227,387.993c-6.984,0-13.213,4.437-15.498,11.039     c-2.959,8.547,1.586,17.907,10.132,20.865c1.737,0.602,3.542,0.907,5.367,0.907c6.983,0,13.212-4.436,15.498-11.038     c2.958-8.547-1.586-17.907-10.131-20.867C281.857,388.298,280.052,387.993,278.227,387.993L278.227,387.993z"/>
			<path style="fill:#000E3F;" d="M319.031,406.176c1.339,0,2.702,0.22,4.04,0.683c6.445,2.231,9.86,9.264,7.629,15.708     c-1.77,5.106-6.552,8.311-11.668,8.311c-1.34,0-2.703-0.22-4.041-0.683c-6.444-2.231-9.859-9.263-7.628-15.707     C309.132,409.381,313.915,406.176,319.031,406.176 M319.031,402.121c-6.985,0-13.213,4.437-15.498,11.039     c-1.434,4.14-1.169,8.59,0.745,12.531c1.914,3.941,5.247,6.9,9.387,8.333c1.736,0.603,3.542,0.907,5.367,0.907     c6.983,0,13.212-4.436,15.498-11.038c1.434-4.141,1.169-8.592-0.745-12.532c-1.914-3.941-5.249-6.9-9.389-8.334     C322.662,402.427,320.855,402.121,319.031,402.121L319.031,402.121z"/>
			<path style="fill:#000E3F;" d="M359.836,420.303c1.339,0,2.702,0.22,4.04,0.683c6.445,2.231,9.86,9.264,7.629,15.709     c-1.77,5.106-6.553,8.311-11.669,8.311c-1.339,0-2.702-0.22-4.04-0.683c-6.444-2.232-9.859-9.264-7.628-15.709     C349.936,423.508,354.72,420.303,359.836,420.303 M359.836,416.249c-6.985,0-13.213,4.437-15.498,11.039     c-2.958,8.546,1.586,17.906,10.131,20.865c1.737,0.601,3.544,0.907,5.367,0.907c6.984,0,13.213-4.436,15.499-11.038     c2.96-8.549-1.588-17.91-10.133-20.868C363.466,416.554,361.66,416.249,359.836,416.249L359.836,416.249z"/>
		</g>
	</g>
	<g>
		<g>
			<path style="fill:#6280FF;" d="M166.876,368.002c-23.788-0.003-45.906-11.089-65.742-32.957     c-42.478-2.128-75.583-21.42-90.634-52.845c-13.529-28.252-10.074-61.08,9.245-87.813     c21.997-30.408,61.357-48.494,110.834-50.929c2.177-0.106,4.355-0.161,6.53-0.161c41.981,0,89.216,21.064,100.102,68.12     c14.1,60.946-32.179,103.041-84.4,117.797c11.705,16.045,26.287,26.189,32.038,29.819c1.349,0.859,2.037,2.43,1.759,4.004     c-0.28,1.579-1.465,2.816-3.016,3.158c-5.617,1.2-11.237,1.806-16.708,1.806C166.881,368.002,166.878,368.002,166.876,368.002z"/>
			<g style="opacity:0.5;">
				<path style="fill:#FFFFFF;" d="M202.205,215.775l0.067,0.117c2.114,3.67,7.765,1.597,7.008-2.572      c-7.5-40.93-57.042-58.445-96.607-47.564c-3.811,1.047-3.286,6.661,0.671,6.963      C151.837,175.652,182.857,182.188,202.205,215.775z"/>
			</g>
			<g style="opacity:0.25;">
				<path style="fill:#000E3F;" d="M101.434,333.105c0.456,0.023,0.878,0.233,1.201,0.579c18.196,20.059,45.12,38.089,80.523,30.533      c1.636-0.36,2.039-2.561,0.61-3.469c-6.715-4.238-21.128-14.503-32.806-30.628c-0.679-0.926-0.269-2.253,0.755-2.675      c-18.543-23.87-68.802-10.401-92.149-38.246c-18.601-22.204-13.261-53.789-25.391-78.989      c-3.635-7.524-7.85-12.218-12.789-14.634C-17.687,249.65,11.658,328.453,101.434,333.105z"/>
			</g>
		</g>
		<g>
			<g>
				<path style="fill:#000E3F;" d="M71.693,279.454c0.062,0.27,2.507,15.416,2.548,15.687c-0.063,0.009-0.115,0.079-0.178,0.088      c-2.217,0.962-7.529,1.674-10.382,1.773c-2.269-12.029-4.194-29.145-6.719-42.922c9.893-4.25,26.929-5.4,29.746,8.652      C88.029,271.769,80.158,279.612,71.693,279.454z M67.347,261.483c0.625,2.967,0.755,6.899,1.929,9.277      c3.574-0.417,6.798-1.215,8.158-3.041c1.1-2.072,0.349-5.02-2.025-6.011C72.229,259.798,67.717,260.986,67.347,261.483z"/>
				<path style="fill:#000E3F;" d="M117.696,275.09c-0.301,2.542,2.771,11.435-6.897,15.6c-4.382,2.029-12.942,3.101-15.894-1.5      c-1.487-1.885-2.091-4.284-2.509-6.707c-2.86-15.398-5.176-24.872-1.428-30.696c3.912-5.221,18.504-7.249,22.579,0.588      C115.736,255.806,117.57,273.362,117.696,275.09z M103.564,256c-3.353-0.826-6.537,2.57-7.042,6.318      c-0.418,6.223,1.927,15.736,3.405,18.937c2.106,3.068,7.4,2.677,9.54-0.565c0.903-1.644,1.108-0.962-0.371-12.118      C107.721,263.837,108.423,257.532,103.564,256z"/>
				<path style="fill:#000E3F;" d="M137.819,256.283c0.352-4.967-9.544-5.557-7.781,1.264c2.196,4.252,9.08-0.656,16.198,7.065      c6.283,5.983,4.804,20.801-8.035,22.2c-7.325,0.879-15.934-2.641-16.591-10.637l-0.027-0.187l-0.027-0.187      c2.867-0.866,6.737-0.984,9.534-1.458c1.088,5.257,10.215,4.05,8.368-1.605c-1.082-3.92-6.092-3.761-9.687-3.938      c-10.43-0.392-14.822-17.396-3.643-24.063c3.808-2.277,9.693-2.563,13.95-1.336c4.294,1.475,7.443,5.155,7.171,11.569      C145.146,255.53,141.543,256.751,137.819,256.283z"/>
				<path style="fill:#000E3F;" d="M176.404,246.503c-1.797-0.093-4.979,0.583-7.799,1.14c5.806,39.733,2.602,16.926,5.116,33.28      c-2.984,0.945-7.246,0.994-10.167,1.932c-0.296-0.721-0.898-10.065-5.296-33.189l-0.07-0.054      c-2.08-0.716-6.553,0.511-7.597,0.346c-0.745-1.073-1.655-9.149-1.761-9.875c8.475-1.303,17.725-2.972,26.408-3.286      C175.827,239.515,176.401,243.445,176.404,246.503z"/>
				<path style="fill:#000E3F;" d="M186.445,234.586c1.372,10.696,2.827,22.4,4.886,32.993c-1.917,0.508-6.099,1.19-8.064,1.499      c-1.417-11.007-3.691-21.762-4.663-33.219C181.289,235.057,184.578,234.316,186.445,234.586z M185.182,279.565      c-0.564,0.082-0.542-5.017-0.88-7.325l-0.009-0.063c1.877-1.103,5.158-0.88,7.593-1.236c0.274,2.318,0.551,5.08,0.907,7.512      c-0.939,0.106-2.701,0.337-2.942,0.368L185.182,279.565z"/>
			</g>
			<g>
				<path style="fill:#000E3F;" d="M102.676,234.383c-2.542-4.026-5.134-7.78-7.022-11.279l-0.626-1.243      c-0.313-0.621-0.626-1.24-0.756-1.221c-0.176,0.026,0.597,6.222,1.309,11.092c0.197,1.348,0.381,2.61,0.572,3.604      c-0.628,0.269-1.231,0.402-1.881,0.497c-1.392,0.203-2.866,0.152-4.214,0.348l-0.445-3.043      c-0.808-5.526-1.632-10.248-2.427-15.686c-0.584-4-1.075-7.971-1.312-11.714c0.546-0.212,1.237-0.358,1.932-0.46      c0.741-0.108,3.636-0.354,3.675-0.092c1.138,2.01,1.574,2.259,2.974,4.54c0.468,0.776,4.584,6.751,4.714,6.732      c0.157-0.158,0.103-1.437-0.044-2.437c-0.337-2.307-0.746-4.201-1.051-6.288c-0.178-1.218-0.314-2.442-0.48-3.885      c0.975-0.32,2.007-0.561,3.093-0.719c1.089-0.159,2.058-0.211,2.91-0.158l2.047,14.008c0.4,2.428,0.769,4.952,1.131,7.43      c0.248,1.698,0.426,3.226,0.662,4.836c0.172,1.174,0.381,2.298,0.552,3.472l0.127,0.871c-0.126,0.063-0.404,0.281-1.404,0.427      C105.535,234.187,103.85,234.211,102.676,234.383z"/>
				<path style="fill:#000E3F;" d="M128.577,224.644c0.403,1.852,0.708,3.939,0.483,5.751c-5.922,0.82-12.164,2.177-17.846,2.518      c-1.475-10.091-3.413-19.714-4.304-29.758c6.691-1.335,17.931-3.155,17.969-2.893c0.605,2.001,0.604,4.132,0.903,6.177      l0.007,0.044c-3.575,1.367-7.544,1.28-11.319,2.186l-0.132,0.019l-0.038,0.05c0.292,1.689,0.167,3.573,0.788,5.082l0.05,0.038      c1.758-0.125,3.58-0.433,5.369-0.652l0.007,0.044c0.592,1.912,0.616,3.91,0.972,6.034c-1.714,0.737-4.655,0.68-5.195,1.246      c-0.055,1.742,0.462,4.065,0.795,5.438l0.051,0.037c3.828-0.559,7.49-0.74,11.429-1.448L128.577,224.644z"/>
				<path style="fill:#000E3F;" d="M145.839,197.153c0.598,10.177,0.873,20.266,1.52,30.477c-0.372,0.187-0.9,0.221-1.465,0.304      l-1.565,0.229l-0.524,0.077c-1.198-1.204-2.367-5.563-3.647-7.02l-0.044,0.006c-0.889,1.197-0.594,5.951-1.293,7.565      c-0.72,0.237-1.273,0.406-2.099,0.527c-0.479,0.07-1.006,0.105-1.673,0.112l-0.042,0.006c-2.841-9.714-5.919-19.525-7.561-29.55      l-0.006-0.044c0.849-0.256,1.793-0.484,2.793-0.63c1.174-0.172,2.364-0.255,3.412-0.364c1.229,5.062,1.572,13.187,3.565,18.003      c0.358-2.715,0.56-5.279,0.832-7.984c0.025-0.136,0.019-0.18,0.054-0.23c0.581,0.315,2.683,6.494,3.632,8.134      c-0.251-5.073-1.652-13.443-1.918-18.601l-0.007-0.044c0.969-0.364,2.007-0.561,3.052-0.713c1-0.146,1.963-0.242,2.932-0.296      L145.839,197.153z"/>
			</g>
			<path style="fill:#000E3F;" d="M137.11,145.326c44.601,0,87.967,22.639,98.126,66.55     c13.678,59.128-30.454,100.666-83.292,115.477c-0.089,0.013-0.173,0.054-0.229,0.093c-1.023,0.422-1.434,1.748-0.755,2.675     c11.679,16.124,26.091,26.389,32.807,30.627c1.429,0.908,1.026,3.109-0.61,3.469c-5.642,1.204-11.065,1.758-16.275,1.758     c-27.484,0-48.951-15.43-64.247-32.292c-0.323-0.345-0.745-0.555-1.201-0.578c-89.775-4.652-119.12-83.455-80.046-137.528     c19.352-26.754,55.431-47.443,109.289-50.094C132.824,145.378,134.965,145.326,137.11,145.326 M137.11,141.271     c-2.201,0-4.432,0.054-6.632,0.162c-50.104,2.467-90.014,20.852-112.377,51.768c-19.761,27.345-23.285,60.944-9.429,89.875     c15.268,31.879,48.621,51.534,91.594,54.025c20.045,21.834,42.468,32.928,66.615,32.928c5.617,0,11.378-0.622,17.122-1.847     c2.383-0.525,4.18-2.404,4.601-4.795c0.421-2.387-0.624-4.766-2.664-6.063c-5.378-3.394-18.583-12.559-29.752-26.986     c51.97-15.724,97.14-58.238,82.996-119.377c-5.022-21.709-18.139-39.779-37.934-52.257     C183.417,147.463,160.638,141.271,137.11,141.271L137.11,141.271z"/>
		</g>
	</g>
	<g>
		<g>
			<g>
				<path style="fill:#FF8EDE;" d="M7.699,54.668c0.265,6.216,5.518,11.041,11.734,10.776c6.216-0.265,11.041-5.518,10.776-11.735      c-0.265-6.216-5.518-11.041-11.735-10.776C12.259,43.198,7.435,48.452,7.699,54.668z"/>
				<path style="fill:#FF8EDE;" d="M108.753,36.011c0.265,6.216,5.518,11.041,11.735,10.776c6.216-0.265,11.041-5.518,10.776-11.735      c-0.265-6.216-5.518-11.041-11.734-10.776C113.313,24.541,108.488,29.795,108.753,36.011z"/>
			</g>
			<g>
				<path style="fill:#FC09B2;" d="M73.205,109.259c0.265,6.216,5.518,11.041,11.735,10.776c6.216-0.265,11.041-5.518,10.776-11.734      c-0.265-6.216-5.518-11.041-11.735-10.776C77.765,97.789,72.94,103.043,73.205,109.259z"/>
				<path style="fill:#FC09B2;" d="M166.533,92.68c0.265,6.216,5.518,11.041,11.735,10.776c6.216-0.265,11.041-5.518,10.776-11.735      c-0.265-6.216-5.518-11.041-11.735-10.776C171.093,81.21,166.268,86.464,166.533,92.68z"/>
			</g>
		</g>
		<path style="fill:#000E3F;" d="M219.249,24.362l10.647,5.845l-0.612-28.293l-24.199,14.673l10.615,5.827l-31.801,57.975    c-2.002-1.064-4.282-1.596-6.689-1.469c-2.788,0.127-5.347,1.09-7.399,2.686l-38.668-38.82c1.47-2.23,2.281-4.941,2.154-7.83    c-0.329-7.323-6.538-13.126-13.861-12.695c-7.323,0.304-13.024,6.513-12.695,13.836c0.177,4.384,2.483,8.21,5.879,10.44    l-23.54,49.792c-1.597-0.608-3.345-0.912-5.195-0.836c-3.598,0.177-6.816,1.748-9.123,4.206L29.986,61.613    c1.597-2.331,2.382-5.119,2.255-7.982c-0.329-7.323-6.563-13.126-13.861-12.72c-7.323,0.304-13.024,6.512-12.695,13.835    C5.888,60.219,9.41,64.78,14.2,66.605L0.034,136.669c-0.202,1.09,0.507,2.154,1.596,2.382c0.127,0.025,0.279,0.051,0.406,0.051    c0.938,0,1.774-0.659,1.976-1.622c0,0,14.165-70.039,14.165-70.039c0.441,0.088,0.897,0.045,1.343,0.025    c2.838-0.127,5.524-1.115,7.704-2.889l45.231,38.516c-0.912,1.875-1.368,4.029-1.267,6.259    c0.304,7.121,6.183,12.721,13.252,12.721c0.203,0,0.406,0,0.583-0.026c7.323-0.304,13.024-6.512,12.72-13.835    c-0.177-4.054-2.128-7.627-5.093-9.933l23.642-49.995c1.166,0.355,2.408,0.532,3.7,0.532c3.066,0,6.051-1.048,8.413-3.015    l38.567,38.719c-1.545,2.179-2.458,4.84-2.458,7.678v0.557c0.304,7.146,6.183,12.746,13.253,12.746    c7.415,0,13.553-6.341,13.307-13.748c-0.001-0.038-0.003-0.075-0.004-0.113c-0.152-3.446-1.622-6.537-3.877-8.818    C187.193,82.822,219.248,24.364,219.249,24.362z M19.343,63.397c-5.012,0.211-9.414-3.794-9.628-8.804    c-0.131-3.059,1.324-6.054,3.789-7.862c1.554-1.14,3.528-1.792,5.46-1.792c4.916,0,9.021,3.902,9.224,8.843    c0.076,1.85-0.38,3.649-1.318,5.195C25.275,61.607,22.406,63.269,19.343,63.397z M93.69,108.39    c0.228,5.093-3.75,9.401-8.844,9.629c-5.043,0.228-9.401-3.751-9.629-8.844c-0.109-2.516,0.884-5.044,2.635-6.842    c2.401-2.464,6.206-3.422,9.477-2.331C90.934,101.205,93.534,104.555,93.69,108.39z M120.396,44.706    c-4.996,0.199-9.404-3.794-9.627-8.788c-0.32-7.189,8.022-12.037,14.12-8.232c2.567,1.601,4.229,4.42,4.353,7.447    c0.121,2.948-1.304,5.997-3.699,7.779C124.03,44.038,122.222,44.634,120.396,44.706z M187.016,91.818    c0.228,5.068-3.751,9.401-8.844,9.604c-4.967,0.203-9.401-3.725-9.604-8.818c-0.195-4.885,3.935-9.417,8.818-9.629    C182.285,82.761,186.826,86.886,187.016,91.818z"/>
	</g>
	<g>
		<g>
			<g>
				<path style="fill:#FF8EDE;" d="M455.666,378.467c-4.524,0-8.641-2.999-10.245-7.461c-1.584-4.402-0.282-9.025,3.398-12.061      c26.043-21.496,40.204-53.092,38.858-86.682c-0.908-22.719-6.988-34.387-14.682-49.16l-1.777-3.418      c-1.967-3.808-1.948-7.718,0.057-11.012c2.064-3.39,5.976-5.58,9.973-5.58c3.392,0,6.28,1.546,8.131,4.35      c2.692,4.08,5.315,8.696,8.025,14.107c21.717,43.36,17.307,109.963-33.137,153.362      C461.568,377.237,458.594,378.467,455.666,378.467z"/>
				<path style="fill:#FF8EDE;" d="M432.264,351.667c-3.21,0-6.261-1.445-8.367-3.964c-3.932-4.699-3.452-11.296,1.114-15.347      c24.617-21.821,32.407-55.027,19.851-84.598c-0.898-2.116-1.886-3.952-2.838-5.726c-2.72-5.058-5.288-9.834-1.099-15.451      c2.17-2.905,5.404-4.573,8.876-4.573c4.026,0,7.696,2.165,9.819,5.791c23.667,40.459,15.095,91.47-20.381,121.289      C437.233,350.774,434.821,351.667,432.264,351.667z"/>
				<path style="fill:#FF8EDE;" d="M408.798,324.702c-2.876,0-5.635-1.141-7.765-3.215c-2.066-2.007-3.214-4.716-3.237-7.629      c-0.025-3.027,1.163-5.895,3.341-8.08c4.724-4.739,8.107-9.945,10.054-15.476c5.199-14.739,1.331-24.914-1.225-31.65      c-0.997-2.62-1.782-4.692-1.906-6.553c-0.376-5.662,3.178-10.089,8.842-11.012c0.75-0.121,1.49-0.181,2.2-0.181      c4.298,0,7.669,2.158,9.75,6.243c6.174,12.123,8.443,25.404,6.392,37.393c-2.408,14.984-8.253,26.664-18.386,36.738      C414.64,323.487,411.777,324.702,408.798,324.702z"/>
			</g>
			<path style="fill:#FC09B2;" d="M379.256,298.229c-1.25,0-2.492-0.129-3.695-0.381c-5.395-0.864-10.188-3.789-13.405-8.216     c-3.217-4.432-4.504-9.883-3.623-15.352c1.633-10.096,10.228-17.421,20.435-17.421c0.975,0,1.96,0.069,2.932,0.206     c5.432,0.757,10.445,3.776,13.756,8.285c3.348,4.556,4.687,10.094,3.769,15.595C397.813,290.637,388.954,298.229,379.256,298.229     z"/>
		</g>
		<g>
			<path style="fill:#000E3F;" d="M481.249,205.122c2.458,0,4.858,1.039,6.44,3.438c2.93,4.441,5.518,9.137,7.904,13.899     c22.999,45.923,14.841,110.064-32.646,150.919c-2.519,2.168-5.023,3.061-7.279,3.061c-7.639,0-12.453-10.239-5.559-15.93     c27.255-22.499,40.922-55.228,39.596-88.327c-1.001-24.951-8.311-37.219-16.685-53.426     C469.082,211.136,475.337,205.122,481.249,205.122 M481.249,201.067L481.249,201.067c-4.687,0-9.281,2.572-11.705,6.553     c-2.352,3.863-2.398,8.6-0.126,12.996c0.598,1.157,1.189,2.293,1.774,3.415c7.58,14.549,13.568,26.041,14.461,48.312     c1.32,32.953-12.576,63.948-38.126,85.039c-4.355,3.595-5.893,9.079-4.013,14.31c1.892,5.264,6.776,8.801,12.153,8.801     c3.418,0,6.85-1.398,9.923-4.042c23.219-19.976,38.466-46.214,44.094-75.877c5.237-27.608,1.521-55.995-10.467-79.931     c-2.763-5.513-5.427-10.196-8.145-14.317C488.866,202.983,485.286,201.067,481.249,201.067L481.249,201.067z"/>
			<path style="fill:#000E3F;" d="M449.802,224.035c3.128-0.001,6.24,1.662,8.068,4.787c23.557,40.269,13.776,90.378-19.934,118.714     c-1.693,1.423-3.693,2.103-5.671,2.103c-2.54,0-5.042-1.121-6.813-3.238c-3.216-3.844-2.905-9.15,0.905-12.528     c26.626-23.607,32.4-58.583,20.372-86.907c-3.622-8.527-8.786-12.999-4.178-19.173     C444.452,225.246,447.133,224.035,449.802,224.035 M449.803,219.98L449.803,219.98c-4.119,0-7.946,1.965-10.501,5.388     c-4.962,6.649-1.829,12.478,0.936,17.621c0.933,1.735,1.897,3.53,2.76,5.562c12.21,28.752,4.623,61.053-19.33,82.288     c-5.407,4.795-5.976,12.602-1.324,18.162c2.493,2.982,6.11,4.692,9.922,4.692c2.995,0,5.935-1.085,8.279-3.055     c17.214-14.469,28.872-34.812,32.827-57.283c4.02-22.836-0.242-46.481-12.002-66.582     C458.881,222.52,454.557,219.98,449.803,219.98L449.803,219.98z"/>
			<path style="fill:#000E3F;" d="M419.106,242.934c3.353,0,6.146,1.616,7.938,5.136c6.127,12.026,8.158,24.706,6.203,36.133     c-2.428,15.092-8.39,26.268-17.819,35.643c-1.897,1.884-4.27,2.83-6.629,2.83c-2.277,0-4.541-0.88-6.352-2.642     c-3.52-3.425-3.516-9.171,0.126-12.826c4.664-4.677,8.346-10.031,10.533-16.232c7.354-20.855-2.626-33.009-3.024-39.01     c-0.307-4.631,2.608-8.136,7.149-8.874C417.872,242.987,418.498,242.934,419.106,242.934 M419.106,238.88L419.106,238.88     c-0.82,0-1.67,0.071-2.526,0.21c-6.649,1.079-10.985,6.485-10.544,13.144c0.145,2.164,1.02,4.469,2.034,7.139     c2.601,6.843,6.163,16.217,1.212,30.254c-1.851,5.246-5.074,10.198-9.58,14.718c-2.564,2.572-3.961,5.955-3.933,9.526     c0.027,3.458,1.394,6.679,3.85,9.069c2.512,2.444,5.772,3.789,9.18,3.789c3.517,0,6.888-1.423,9.487-4.008     c10.454-10.393,16.479-22.428,18.964-37.874c2.118-12.38-0.22-26.109-6.592-38.617C428.242,241.49,424.14,238.88,419.106,238.88     L419.106,238.88z"/>
			<path style="fill:#000E3F;" d="M378.971,258.885c0.875,0,1.759,0.061,2.65,0.184c10.157,1.417,17.532,11.186,15.807,21.54     c-1.537,9.219-9.834,15.592-18.172,15.592c-1.097,0-2.194-0.11-3.276-0.339c-10.251-1.644-17.091-11.06-15.442-21.262     C362.037,265.311,369.955,258.885,378.971,258.885 M378.971,254.831L378.971,254.831c-11.211,0-20.647,8.044-22.436,19.125     c-0.968,5.986,0.435,11.962,3.949,16.825c3.515,4.864,8.753,8.082,14.757,9.07c1.309,0.269,2.659,0.405,4.015,0.405     c10.836,0,20.368-8.159,22.171-18.979c1.007-6.044-0.462-12.128-4.136-17.13c-3.634-4.945-9.141-8.259-15.11-9.092     C381.117,254.906,380.037,254.831,378.971,254.831L378.971,254.831z"/>
		</g>
	</g>
	<g>
		<path style="fill:#FD8A02;" d="M50.065,479.304c2.545,2.984,7.803,6.688,12.384,18.901c0.411,1.095,0.842,2.199,1.417,3.21    c0.801,1.408,2.512,1.499,3.462,0.148c2.147-3.055,2.274-7.916,9.431-16.308c4.2-4.925,8.286-6.472,4.779-9.459    c-8.742-7.445-11.736-18.596-13.326-21.547c-0.686-1.274-2.319-1.375-3.215-0.255c-0.96,1.201-1.456,2.658-2.034,4.065    c-4.274,10.418-10.157,15.174-12.559,17.488C49.803,476.126,49.188,478.277,50.065,479.304z"/>
		<path style="fill:#FD8A02;" d="M8.077,383.89c2.931,3.434,8.981,7.685,14.264,21.769c0.473,1.261,0.969,2.533,1.632,3.697    c0.923,1.621,2.894,1.726,3.987,0.17c2.476-3.522,2.619-9.117,10.863-18.783c4.838-5.673,9.544-7.454,5.505-10.894    c-10.069-8.575-13.517-21.419-15.349-24.818c-0.791-1.467-2.671-1.584-3.702-0.294c-1.105,1.383-1.677,3.061-2.343,4.682    c-4.932,12.021-11.73,17.509-14.465,20.142C7.775,380.229,7.066,382.707,8.077,383.89z"/>
		<path style="fill:#FD8A02;" d="M145.847,446.012c0.611,0.716,1.232,1.433,1.913,2.08c9.614,9.116,11.865,19.666,13.983,23.386    c0.923,1.621,2.893,1.727,3.987,0.17c0.762-1.085,1.341-2.34,1.801-3.594c7.179-19.558,20.607-20.939,14.566-26.083    c-10.069-8.575-13.517-21.419-15.348-24.818c-0.791-1.467-2.671-1.584-3.702-0.294c-1.105,1.383-1.678,3.061-2.343,4.682    c-4.932,12.021-11.731,17.509-14.465,20.142C145.545,442.351,144.834,444.826,145.847,446.012z"/>
	</g>
</g>















</svg>
